<svg width="239" height="36" viewBox="0 0 239 36" fill="none" xmlns="http://www.w3.org/2000/svg">
<g clip-path="url(#clip0_3364_844)">
<path d="M16.8774 30.0092C17.5564 29.5994 18.4066 29.5994 19.0855 30.0092L26.0693 34.2244C27.6874 35.2011 29.6835 33.7503 29.254 31.9097L27.4006 23.9662C27.2203 23.1938 27.4828 22.3851 28.0823 21.8658L34.2554 16.5182C35.6839 15.2806 34.9203 12.934 33.037 12.7743L24.914 12.0854C24.1244 12.0184 23.4367 11.5199 23.1274 10.7903L19.9487 3.29058C19.2124 1.55352 16.7506 1.55353 16.0143 3.29058L12.8355 10.7903C12.5263 11.5199 11.8386 12.0184 11.0489 12.0854L2.926 12.7743C1.04272 12.934 0.279039 15.2806 1.7076 16.5182L7.88068 21.8658C8.48017 22.3851 8.74264 23.1938 8.56241 23.9662L6.70892 31.9097C6.27946 33.7503 8.27557 35.2011 9.89368 34.2244L16.8774 30.0092Z" fill="#1E3A8A"/>
</g>
<g clip-path="url(#clip1_3364_844)">
<path d="M67.6213 30.0092C68.3003 29.5994 69.1504 29.5994 69.8294 30.0092L76.8132 34.2244C78.4313 35.2011 80.4274 33.7503 79.9979 31.9097L78.1445 23.9662C77.9642 23.1938 78.2267 22.3851 78.8262 21.8658L84.9993 16.5182C86.4278 15.2806 85.6642 12.934 83.7809 12.7743L75.6579 12.0854C74.8683 12.0184 74.1806 11.5199 73.8713 10.7903L70.6926 3.29058C69.9563 1.55352 67.4945 1.55353 66.7582 3.29058L63.5794 10.7903C63.2702 11.5199 62.5825 12.0184 61.7928 12.0854L53.6699 12.7743C51.7866 12.934 51.0229 15.2806 52.4515 16.5182L58.6246 21.8658C59.2241 22.3851 59.4865 23.1938 59.3063 23.9662L57.4528 31.9097C57.0234 33.7503 59.0195 35.2011 60.6376 34.2244L67.6213 30.0092Z" fill="#1E3A8A"/>
</g>
<g clip-path="url(#clip2_3364_844)">
<path d="M118.365 30.0092C119.044 29.5994 119.894 29.5994 120.573 30.0092L127.557 34.2244C129.175 35.2011 131.171 33.7503 130.742 31.9097L128.888 23.9662C128.708 23.1938 128.971 22.3851 129.57 21.8658L135.743 16.5182C137.172 15.2806 136.408 12.934 134.525 12.7743L126.402 12.0854C125.612 12.0184 124.924 11.5199 124.615 10.7903L121.436 3.29058C120.7 1.55352 118.238 1.55353 117.502 3.29058L114.323 10.7903C114.014 11.5199 113.326 12.0184 112.537 12.0854L104.414 12.7743C102.531 12.934 101.767 15.2806 103.195 16.5182L109.368 21.8658C109.968 22.3851 110.23 23.1938 110.05 23.9662L108.197 31.9097C107.767 33.7503 109.763 35.2011 111.381 34.2244L118.365 30.0092Z" fill="#1E3A8A"/>
</g>
<g clip-path="url(#clip3_3364_844)">
<path d="M169.109 30.0092C169.788 29.5994 170.638 29.5994 171.317 30.0092L178.301 34.2244C179.919 35.2011 181.915 33.7503 181.486 31.9097L179.632 23.9662C179.452 23.1938 179.714 22.3851 180.314 21.8658L186.487 16.5182C187.916 15.2806 187.152 12.934 185.269 12.7743L177.146 12.0854C176.356 12.0184 175.668 11.5199 175.359 10.7903L172.18 3.29058C171.444 1.55352 168.982 1.55353 168.246 3.29058L165.067 10.7903C164.758 11.5199 164.07 12.0184 163.281 12.0854L155.158 12.7743C153.274 12.934 152.511 15.2806 153.939 16.5182L160.112 21.8658C160.712 22.3851 160.974 23.1938 160.794 23.9662L158.941 31.9097C158.511 33.7503 160.507 35.2011 162.125 34.2244L169.109 30.0092Z" fill="#1E3A8A"/>
</g>
<g clip-path="url(#clip4_3364_844)">
<path d="M219.853 30.0092C220.532 29.5994 221.382 29.5994 222.061 30.0092L229.045 34.2244C230.663 35.2011 232.659 33.7503 232.23 31.9097L230.376 23.9662C230.196 23.1938 230.458 22.3851 231.058 21.8658L237.231 16.5182C238.66 15.2806 237.896 12.934 236.013 12.7743L227.89 12.0854C227.1 12.0184 226.412 11.5199 226.103 10.7903L222.924 3.29058C222.188 1.55352 219.726 1.55353 218.99 3.29058L215.811 10.7903C215.502 11.5199 214.814 12.0184 214.025 12.0854L205.902 12.7743C204.018 12.934 203.255 15.2806 204.683 16.5182L210.856 21.8658C211.456 22.3851 211.718 23.1938 211.538 23.9662L209.685 31.9097C209.255 33.7503 211.251 35.2011 212.869 34.2244L219.853 30.0092Z" fill="#1E3A8A"/>
</g>
<defs>
<clipPath id="clip0_3364_844">
<rect width="34.7195" height="34.7195" fill="white" transform="translate(0.621826 0.385254)"/>
</clipPath>
<clipPath id="clip1_3364_844">
<rect width="34.7195" height="34.7195" fill="white" transform="translate(51.3657 0.385254)"/>
</clipPath>
<clipPath id="clip2_3364_844">
<rect width="34.7195" height="34.7195" fill="white" transform="translate(102.11 0.385254)"/>
</clipPath>
<clipPath id="clip3_3364_844">
<rect width="34.7195" height="34.7195" fill="white" transform="translate(152.854 0.385254)"/>
</clipPath>
<clipPath id="clip4_3364_844">
<rect width="34.7195" height="34.7195" fill="white" transform="translate(203.597 0.385254)"/>
</clipPath>
</defs>
</svg>
