<svg width="97" height="97" viewBox="0 0 97 97" fill="none" xmlns="http://www.w3.org/2000/svg">
<rect x="0.733398" y="0.416748" width="96.15" height="96.15" rx="26.7083" fill="#F9F9FF"/>
<path d="M40 78C37.1 78 34.375 77.45 31.825 76.35C29.275 75.25 27.05 73.75 25.15 71.85C23.25 69.95 21.75 67.725 20.65 65.175C19.55 62.625 19 59.9 19 57C19 52.95 20.05 49.25 22.15 45.9C24.25 42.55 27 40 30.4 38.25C31.4 36.3 32.6375 34.5875 34.1125 33.1125C35.5875 31.6375 37.3 30.4 39.25 29.4C40.9 26 43.425 23.25 46.825 21.15C50.225 19.05 53.95 18 58 18C60.9 18 63.625 18.55 66.175 19.65C68.725 20.75 70.95 22.25 72.85 24.15C74.75 26.05 76.25 28.275 77.35 30.825C78.45 33.375 79 36.1 79 39C79 43.25 77.95 47 75.85 50.25C73.75 53.5 71 56 67.6 57.75C66.6 59.7 65.3625 61.4125 63.8875 62.8875C62.4125 64.3625 60.7 65.6 58.75 66.6C57 70 54.45 72.75 51.1 74.85C47.75 76.95 44.05 78 40 78ZM40 72C41.65 72 43.2375 71.75 44.7625 71.25C46.2875 70.75 47.7 70 49 69C46.1 69 43.375 68.45 40.825 67.35C38.275 66.25 36.05 64.75 34.15 62.85C32.25 60.95 30.75 58.725 29.65 56.175C28.55 53.625 28 50.9 28 48C27 49.3 26.25 50.7125 25.75 52.2375C25.25 53.7625 25 55.35 25 57C25 59.1 25.4 61.05 26.2 62.85C27 64.65 28.075 66.225 29.425 67.575C30.775 68.925 32.35 70 34.15 70.8C35.95 71.6 37.9 72 40 72ZM49 63C50.65 63 52.2625 62.75 53.8375 62.25C55.4125 61.75 56.85 61 58.15 60C55.2 60 52.45 59.4375 49.9 58.3125C47.35 57.1875 45.125 55.675 43.225 53.775C41.325 51.875 39.8125 49.65 38.6875 47.1C37.5625 44.55 37 41.8 37 38.85C36 40.15 35.25 41.5875 34.75 43.1625C34.25 44.7375 34 46.35 34 48C34 50.1 34.3875 52.05 35.1625 53.85C35.9375 55.65 37.025 57.225 38.425 58.575C39.775 59.975 41.35 61.0625 43.15 61.8375C44.95 62.6125 46.9 63 49 63ZM58 54C58.9 54 59.7625 53.925 60.5875 53.775C61.4125 53.625 62.25 53.4 63.1 53.1C64.2 50.1 64.3625 47.2125 63.5875 44.4375C62.8125 41.6625 61.475 39.325 59.575 37.425C57.675 35.525 55.3375 34.1875 52.5625 33.4125C49.7875 32.6375 46.9 32.8 43.9 33.9C43.6 34.75 43.375 35.5875 43.225 36.4125C43.075 37.2375 43 38.1 43 39C43 41.1 43.3875 43.05 44.1625 44.85C44.9375 46.65 46.025 48.225 47.425 49.575C48.775 50.975 50.35 52.0625 52.15 52.8375C53.95 53.6125 55.9 54 58 54ZM70 48.15C71 46.85 71.75 45.4125 72.25 43.8375C72.75 42.2625 73 40.65 73 39C73 36.9 72.6125 34.95 71.8375 33.15C71.0625 31.35 69.975 29.775 68.575 28.425C67.225 27.025 65.65 25.9375 63.85 25.1625C62.05 24.3875 60.1 24 58 24C56.25 24 54.6125 24.25 53.0875 24.75C51.5625 25.25 50.15 26 48.85 27C51.8 27 54.55 27.5625 57.1 28.6875C59.65 29.8125 61.875 31.325 63.775 33.225C65.675 35.125 67.1875 37.35 68.3125 39.9C69.4375 42.45 70 45.2 70 48.15Z" fill="#1E3A8A"/>
</svg>
