<svg width="97" height="97" viewBox="0 0 97 97" fill="none" xmlns="http://www.w3.org/2000/svg">
<rect x="0.695862" y="0.293701" width="96.15" height="96.15" rx="26.7083" fill="#F9F9FF"/>
<path d="M41.5 48C40.7917 48 40.1979 47.7604 39.7188 47.2812C39.2396 46.8021 39 46.2083 39 45.5C39 44.7917 39.2396 44.1979 39.7188 43.7188C40.1979 43.2396 40.7917 43 41.5 43H56.5C57.2083 43 57.8021 43.2396 58.2812 43.7188C58.7604 44.1979 59 44.7917 59 45.5C59 46.2083 58.7604 46.8021 58.2812 47.2812C57.8021 47.7604 57.2083 48 56.5 48H41.5ZM41.5 38C40.7917 38 40.1979 37.7604 39.7188 37.2812C39.2396 36.8021 39 36.2083 39 35.5C39 34.7917 39.2396 34.1979 39.7188 33.7188C40.1979 33.2396 40.7917 33 41.5 33H56.5C57.2083 33 57.8021 33.2396 58.2812 33.7188C58.7604 34.1979 59 34.7917 59 35.5C59 36.2083 58.7604 36.8021 58.2812 37.2812C57.8021 37.7604 57.2083 38 56.5 38H41.5ZM34 53H52.75C53.9583 53 55.0833 53.2604 56.125 53.7812C57.1667 54.3021 58.0417 55.0417 58.75 56L64 62.875V28H34V53ZM34 68H61.625L54.8125 59.0625C54.5625 58.7292 54.2604 58.4688 53.9062 58.2812C53.5521 58.0938 53.1667 58 52.75 58H34V68ZM64 73H34C32.625 73 31.4479 72.5104 30.4688 71.5312C29.4896 70.5521 29 69.375 29 68V28C29 26.625 29.4896 25.4479 30.4688 24.4688C31.4479 23.4896 32.625 23 34 23H64C65.375 23 66.5521 23.4896 67.5312 24.4688C68.5104 25.4479 69 26.625 69 28V68C69 69.375 68.5104 70.5521 67.5312 71.5312C66.5521 72.5104 65.375 73 64 73Z" fill="#1E3A8A"/>
</svg>
