<svg width="97" height="97" viewBox="0 0 97 97" fill="none" xmlns="http://www.w3.org/2000/svg">
<rect x="0.629181" y="0.293701" width="96.15" height="96.15" rx="26.7083" fill="#F9F9FF"/>
<path d="M49 73C45.5833 73 42.3542 72.3438 39.3125 71.0312C36.2708 69.7188 33.6146 67.9271 31.3438 65.6562C29.0729 63.3854 27.2812 60.7292 25.9688 57.6875C24.6562 54.6458 24 51.4167 24 48C24 44.5417 24.6771 41.2917 26.0312 38.25C27.3854 35.2083 29.2188 32.5625 31.5312 30.3125C33.8438 28.0625 36.5417 26.2812 39.625 24.9688C42.7083 23.6562 46 23 49.5 23C52.8333 23 55.9792 23.5729 58.9375 24.7188C61.8958 25.8646 64.4896 27.4479 66.7188 29.4688C68.9479 31.4896 70.7188 33.8854 72.0312 36.6562C73.3438 39.4271 74 42.4167 74 45.625C74 50.4167 72.5417 54.0938 69.625 56.6562C66.7083 59.2188 63.1667 60.5 59 60.5H54.375C54 60.5 53.7396 60.6042 53.5938 60.8125C53.4479 61.0208 53.375 61.25 53.375 61.5C53.375 62 53.6875 62.7188 54.3125 63.6562C54.9375 64.5938 55.25 65.6667 55.25 66.875C55.25 68.9583 54.6771 70.5 53.5312 71.5C52.3854 72.5 50.875 73 49 73ZM35.25 50.5C36.3333 50.5 37.2292 50.1458 37.9375 49.4375C38.6458 48.7292 39 47.8333 39 46.75C39 45.6667 38.6458 44.7708 37.9375 44.0625C37.2292 43.3542 36.3333 43 35.25 43C34.1667 43 33.2708 43.3542 32.5625 44.0625C31.8542 44.7708 31.5 45.6667 31.5 46.75C31.5 47.8333 31.8542 48.7292 32.5625 49.4375C33.2708 50.1458 34.1667 50.5 35.25 50.5ZM42.75 40.5C43.8333 40.5 44.7292 40.1458 45.4375 39.4375C46.1458 38.7292 46.5 37.8333 46.5 36.75C46.5 35.6667 46.1458 34.7708 45.4375 34.0625C44.7292 33.3542 43.8333 33 42.75 33C41.6667 33 40.7708 33.3542 40.0625 34.0625C39.3542 34.7708 39 35.6667 39 36.75C39 37.8333 39.3542 38.7292 40.0625 39.4375C40.7708 40.1458 41.6667 40.5 42.75 40.5ZM55.25 40.5C56.3333 40.5 57.2292 40.1458 57.9375 39.4375C58.6458 38.7292 59 37.8333 59 36.75C59 35.6667 58.6458 34.7708 57.9375 34.0625C57.2292 33.3542 56.3333 33 55.25 33C54.1667 33 53.2708 33.3542 52.5625 34.0625C51.8542 34.7708 51.5 35.6667 51.5 36.75C51.5 37.8333 51.8542 38.7292 52.5625 39.4375C53.2708 40.1458 54.1667 40.5 55.25 40.5ZM62.75 50.5C63.8333 50.5 64.7292 50.1458 65.4375 49.4375C66.1458 48.7292 66.5 47.8333 66.5 46.75C66.5 45.6667 66.1458 44.7708 65.4375 44.0625C64.7292 43.3542 63.8333 43 62.75 43C61.6667 43 60.7708 43.3542 60.0625 44.0625C59.3542 44.7708 59 45.6667 59 46.75C59 47.8333 59.3542 48.7292 60.0625 49.4375C60.7708 50.1458 61.6667 50.5 62.75 50.5ZM49 68C49.375 68 49.6771 67.8958 49.9062 67.6875C50.1354 67.4792 50.25 67.2083 50.25 66.875C50.25 66.2917 49.9375 65.6042 49.3125 64.8125C48.6875 64.0208 48.375 62.8333 48.375 61.25C48.375 59.5 48.9792 58.1042 50.1875 57.0625C51.3958 56.0208 52.875 55.5 54.625 55.5H59C61.75 55.5 64.1042 54.6979 66.0625 53.0938C68.0208 51.4896 69 49 69 45.625C69 40.5833 67.0729 36.3854 63.2188 33.0312C59.3646 29.6771 54.7917 28 49.5 28C43.8333 28 39 29.9375 35 33.8125C31 37.6875 29 42.4167 29 48C29 53.5417 30.9479 58.2604 34.8438 62.1562C38.7396 66.0521 43.4583 68 49 68Z" fill="#1E3A8A"/>
</svg>
