<svg width="85" height="85" viewBox="0 0 85 85" fill="none" xmlns="http://www.w3.org/2000/svg">
<g clip-path="url(#clip0_3487_204)">
<rect x="-6.37082" y="-5.53735" width="96.15" height="96.15" rx="26.7083" fill="#F9F9FF"/>
<path d="M49.5 63C48.7917 63 48.1979 62.7604 47.7188 62.2812C47.2396 61.8021 47 61.2083 47 60.5C47 59.7917 47.2396 59.1979 47.7188 58.7188C48.1979 58.2396 48.7917 58 49.5 58H54.5C55.2083 58 55.8021 57.7604 56.2812 57.2812C56.7604 56.8021 57 56.2083 57 55.5V50.5C57 48.9167 57.4583 47.4792 58.375 46.1875C59.2917 44.8958 60.5 43.9792 62 43.4375V42.5625C60.5 42.0208 59.2917 41.1042 58.375 39.8125C57.4583 38.5208 57 37.0833 57 35.5V30.5C57 29.7917 56.7604 29.1979 56.2812 28.7188C55.8021 28.2396 55.2083 28 54.5 28H49.5C48.7917 28 48.1979 27.7604 47.7188 27.2812C47.2396 26.8021 47 26.2083 47 25.5C47 24.7917 47.2396 24.1979 47.7188 23.7188C48.1979 23.2396 48.7917 23 49.5 23H54.5C56.5833 23 58.3542 23.7292 59.8125 25.1875C61.2708 26.6458 62 28.4167 62 30.5V35.5C62 36.2083 62.2396 36.8021 62.7188 37.2812C63.1979 37.7604 63.7917 38 64.5 38C65.2083 38 65.8021 38.2396 66.2812 38.7188C66.7604 39.1979 67 39.7917 67 40.5V45.5C67 46.2083 66.7604 46.8021 66.2812 47.2812C65.8021 47.7604 65.2083 48 64.5 48C63.7917 48 63.1979 48.2396 62.7188 48.7188C62.2396 49.1979 62 49.7917 62 50.5V55.5C62 57.5833 61.2708 59.3542 59.8125 60.8125C58.3542 62.2708 56.5833 63 54.5 63H49.5ZM29.5 63C27.4167 63 25.6458 62.2708 24.1875 60.8125C22.7292 59.3542 22 57.5833 22 55.5V50.5C22 49.7917 21.7604 49.1979 21.2812 48.7188C20.8021 48.2396 20.2083 48 19.5 48C18.7917 48 18.1979 47.7604 17.7188 47.2812C17.2396 46.8021 17 46.2083 17 45.5V40.5C17 39.7917 17.2396 39.1979 17.7188 38.7188C18.1979 38.2396 18.7917 38 19.5 38C20.2083 38 20.8021 37.7604 21.2812 37.2812C21.7604 36.8021 22 36.2083 22 35.5V30.5C22 28.4167 22.7292 26.6458 24.1875 25.1875C25.6458 23.7292 27.4167 23 29.5 23H34.5C35.2083 23 35.8021 23.2396 36.2812 23.7188C36.7604 24.1979 37 24.7917 37 25.5C37 26.2083 36.7604 26.8021 36.2812 27.2812C35.8021 27.7604 35.2083 28 34.5 28H29.5C28.7917 28 28.1979 28.2396 27.7188 28.7188C27.2396 29.1979 27 29.7917 27 30.5V35.5C27 37.0833 26.5417 38.5208 25.625 39.8125C24.7083 41.1042 23.5 42.0208 22 42.5625V43.4375C23.5 43.9792 24.7083 44.8958 25.625 46.1875C26.5417 47.4792 27 48.9167 27 50.5V55.5C27 56.2083 27.2396 56.8021 27.7188 57.2812C28.1979 57.7604 28.7917 58 29.5 58H34.5C35.2083 58 35.8021 58.2396 36.2812 58.7188C36.7604 59.1979 37 59.7917 37 60.5C37 61.2083 36.7604 61.8021 36.2812 62.2812C35.8021 62.7604 35.2083 63 34.5 63H29.5Z" fill="#1E3A8A"/>
</g>
<defs>
<clipPath id="clip0_3487_204">
<rect width="85" height="85" fill="white"/>
</clipPath>
</defs>
</svg>
