<svg width="97" height="97" viewBox="0 0 97 97" fill="none" xmlns="http://www.w3.org/2000/svg">
<rect x="0.733398" y="0.462646" width="96.15" height="96.15" rx="26.7083" fill="#F9F9FF"/>
<path d="M39 61.5C38.2917 61.5 37.6979 61.2604 37.2188 60.7812C36.7396 60.3021 36.5 59.7083 36.5 59C36.5 58.2917 36.7396 57.6979 37.2188 57.2188C37.6979 56.7396 38.2917 56.5 39 56.5H51.5C50.9167 55.7917 50.4479 55.0208 50.0938 54.1875C49.7396 53.3542 49.4583 52.4583 49.25 51.5H44C43.2917 51.5 42.6979 51.2604 42.2188 50.7812C41.7396 50.3021 41.5 49.7083 41.5 49C41.5 48.2917 41.7396 47.6979 42.2188 47.2188C42.6979 46.7396 43.2917 46.5 44 46.5H49.25C49.4583 45.5417 49.7396 44.6458 50.0938 43.8125C50.4479 42.9792 50.9167 42.2083 51.5 41.5H29C28.2917 41.5 27.6979 41.2604 27.2188 40.7812C26.7396 40.3021 26.5 39.7083 26.5 39C26.5 38.2917 26.7396 37.6979 27.2188 37.2188C27.6979 36.7396 28.2917 36.5 29 36.5H61.5C64.9583 36.5 67.9062 37.7188 70.3438 40.1562C72.7812 42.5938 74 45.5417 74 49C74 52.4583 72.7812 55.4062 70.3438 57.8438C67.9062 60.2812 64.9583 61.5 61.5 61.5H39ZM61.5 56.5C63.5833 56.5 65.3542 55.7708 66.8125 54.3125C68.2708 52.8542 69 51.0833 69 49C69 46.9167 68.2708 45.1458 66.8125 43.6875C65.3542 42.2292 63.5833 41.5 61.5 41.5C59.4167 41.5 57.6458 42.2292 56.1875 43.6875C54.7292 45.1458 54 46.9167 54 49C54 51.0833 54.7292 52.8542 56.1875 54.3125C57.6458 55.7708 59.4167 56.5 61.5 56.5ZM26.5 51.5C25.7917 51.5 25.1979 51.2604 24.7188 50.7812C24.2396 50.3021 24 49.7083 24 49C24 48.2917 24.2396 47.6979 24.7188 47.2188C25.1979 46.7396 25.7917 46.5 26.5 46.5H36.5C37.2083 46.5 37.8021 46.7396 38.2812 47.2188C38.7604 47.6979 39 48.2917 39 49C39 49.7083 38.7604 50.3021 38.2812 50.7812C37.8021 51.2604 37.2083 51.5 36.5 51.5H26.5ZM29 61.5C28.2917 61.5 27.6979 61.2604 27.2188 60.7812C26.7396 60.3021 26.5 59.7083 26.5 59C26.5 58.2917 26.7396 57.6979 27.2188 57.2188C27.6979 56.7396 28.2917 56.5 29 56.5H31.5C32.2083 56.5 32.8021 56.7396 33.2812 57.2188C33.7604 57.6979 34 58.2917 34 59C34 59.7083 33.7604 60.3021 33.2812 60.7812C32.8021 61.2604 32.2083 61.5 31.5 61.5H29Z" fill="#1E3A8A"/>
</svg>
