<svg width="97" height="97" viewBox="0 0 97 97" fill="none" xmlns="http://www.w3.org/2000/svg">
<rect x="0.629181" y="0.293701" width="96.15" height="96.15" rx="26.7083" fill="#F9F9FF"/>
<path d="M40.4375 46.7821L45.8125 41.3446L42.3125 37.7821L41.3125 38.7821C40.8542 39.2405 40.2812 39.4801 39.5938 39.5009C38.9062 39.5217 38.3125 39.2821 37.8125 38.7821C37.3125 38.2821 37.0625 37.6884 37.0625 37.0009C37.0625 36.3134 37.3125 35.7196 37.8125 35.2196L38.75 34.2821L35.9375 31.4696L30.5 36.9071L40.4375 46.7821ZM60.9375 67.3446L66.375 61.9071L63.5625 59.0946L62.5625 60.0321C62.0625 60.5321 61.4792 60.7821 60.8125 60.7821C60.1458 60.7821 59.5625 60.5321 59.0625 60.0321C58.5625 59.5321 58.3125 58.9488 58.3125 58.2821C58.3125 57.6155 58.5625 57.0321 59.0625 56.5321L60 55.5321L56.4375 52.0321L51.0625 57.4071L60.9375 67.3446ZM28.4375 71.9071C27.7292 71.9071 27.1354 71.6676 26.6562 71.1884C26.1771 70.7092 25.9375 70.1155 25.9375 69.4071V62.3446C25.9375 62.0113 26 61.6884 26.125 61.3759C26.25 61.0634 26.4375 60.7821 26.6875 60.5321L36.875 50.3446L26.0625 39.5321C25.3542 38.8238 25 37.9488 25 36.9071C25 35.8655 25.3542 34.9905 26.0625 34.2821L33.3125 27.0321C34.0208 26.3238 34.8958 25.9801 35.9375 26.0009C36.9792 26.0217 37.8542 26.3863 38.5625 27.0946L49.4375 37.9071L58.875 28.4071C59.375 27.9071 59.9375 27.5321 60.5625 27.2821C61.1875 27.0321 61.8333 26.9071 62.5 26.9071C63.1667 26.9071 63.8125 27.0321 64.4375 27.2821C65.0625 27.5321 65.625 27.9071 66.125 28.4071L69.4375 31.7821C69.9375 32.2821 70.3125 32.8446 70.5625 33.4696C70.8125 34.0946 70.9375 34.7405 70.9375 35.4071C70.9375 36.0738 70.8125 36.7092 70.5625 37.3134C70.3125 37.9176 69.9375 38.4696 69.4375 38.9696L60 48.4696L70.8125 59.2821C71.5208 59.9905 71.875 60.8655 71.875 61.9071C71.875 62.9488 71.5208 63.8238 70.8125 64.5321L63.5625 71.7821C62.8542 72.4905 61.9792 72.8446 60.9375 72.8446C59.8958 72.8446 59.0208 72.4905 58.3125 71.7821L47.5 60.9696L37.3125 71.1571C37.0625 71.4071 36.7812 71.5946 36.4688 71.7196C36.1562 71.8446 35.8333 71.9071 35.5 71.9071H28.4375ZM30.9375 66.9071H34.4375L58.9375 42.4696L55.375 38.9071L30.9375 63.4071V66.9071ZM57.1875 40.7196L55.375 38.9071L58.9375 42.4696L57.1875 40.7196Z" fill="#1E3A8A"/>
</svg>
