<svg width="97" height="97" viewBox="0 0 97 97" fill="none" xmlns="http://www.w3.org/2000/svg">
<rect x="0.162506" y="0.293701" width="96.15" height="96.15" rx="26.7083" fill="#F9F9FF"/>
<path d="M48 61.75C51.125 61.75 53.7812 60.6562 55.9688 58.4688C58.1562 56.2812 59.25 53.625 59.25 50.5C59.25 47.375 58.1562 44.7188 55.9688 42.5312C53.7812 40.3438 51.125 39.25 48 39.25C44.875 39.25 42.2188 40.3438 40.0312 42.5312C37.8438 44.7188 36.75 47.375 36.75 50.5C36.75 53.625 37.8438 56.2812 40.0312 58.4688C42.2188 60.6562 44.875 61.75 48 61.75ZM48 56.75C46.25 56.75 44.7708 56.1458 43.5625 54.9375C42.3542 53.7292 41.75 52.25 41.75 50.5C41.75 48.75 42.3542 47.2708 43.5625 46.0625C44.7708 44.8542 46.25 44.25 48 44.25C49.75 44.25 51.2292 44.8542 52.4375 46.0625C53.6458 47.2708 54.25 48.75 54.25 50.5C54.25 52.25 53.6458 53.7292 52.4375 54.9375C51.2292 56.1458 49.75 56.75 48 56.75ZM28 70.5C26.625 70.5 25.4479 70.0104 24.4688 69.0312C23.4896 68.0521 23 66.875 23 65.5V35.5C23 34.125 23.4896 32.9479 24.4688 31.9688C25.4479 30.9896 26.625 30.5 28 30.5H35.875L39 27.125C39.4583 26.625 40.0104 26.2292 40.6562 25.9375C41.3021 25.6458 41.9792 25.5 42.6875 25.5H53.3125C54.0208 25.5 54.6979 25.6458 55.3438 25.9375C55.9896 26.2292 56.5417 26.625 57 27.125L60.125 30.5H68C69.375 30.5 70.5521 30.9896 71.5312 31.9688C72.5104 32.9479 73 34.125 73 35.5V65.5C73 66.875 72.5104 68.0521 71.5312 69.0312C70.5521 70.0104 69.375 70.5 68 70.5H28ZM28 65.5H68V35.5H57.875L53.3125 30.5H42.6875L38.125 35.5H28V65.5Z" fill="#1E3A8A"/>
</svg>
