<svg width="97" height="97" viewBox="0 0 97 97" fill="none" xmlns="http://www.w3.org/2000/svg">
<rect x="0.733276" y="0.416748" width="96.15" height="96.15" rx="26.7083" fill="#F9F9FF"/>
<path d="M49 70.5C48.2917 70.5 47.6979 70.2604 47.2188 69.7812C46.7396 69.3021 46.5 68.7083 46.5 68C46.5 67.2917 46.7396 66.6979 47.2188 66.2188C47.6979 65.7396 48.2917 65.5 49 65.5H66.5V47.75C66.5 42.875 64.8021 38.7396 61.4062 35.3438C58.0104 31.9479 53.875 30.25 49 30.25C44.125 30.25 39.9896 31.9479 36.5938 35.3438C33.1979 38.7396 31.5 42.875 31.5 47.75V60.5C31.5 61.2083 31.2604 61.8021 30.7812 62.2812C30.3021 62.7604 29.7083 63 29 63C27.625 63 26.4479 62.5104 25.4688 61.5312C24.4896 60.5521 24 59.375 24 58V53C24 52.125 24.2188 51.3021 24.6562 50.5312C25.0938 49.7604 25.7083 49.1458 26.5 48.6875L26.6875 45.375C27.0208 42.5417 27.8438 39.9167 29.1562 37.5C30.4688 35.0833 32.1146 32.9792 34.0938 31.1875C36.0729 29.3958 38.3438 28 40.9062 27C43.4688 26 46.1667 25.5 49 25.5C51.8333 25.5 54.5208 26 57.0625 27C59.6042 28 61.875 29.3854 63.875 31.1562C65.875 32.9271 67.5208 35.0208 68.8125 37.4375C70.1042 39.8542 70.9375 42.4792 71.3125 45.3125L71.5 48.5625C72.2917 48.9375 72.9062 49.5 73.3438 50.25C73.7812 51 74 51.7917 74 52.625V58.375C74 59.2083 73.7812 60 73.3438 60.75C72.9062 61.5 72.2917 62.0625 71.5 62.4375V65.5C71.5 66.875 71.0104 68.0521 70.0312 69.0312C69.0521 70.0104 67.875 70.5 66.5 70.5H49ZM41.5 53C40.7917 53 40.1979 52.7604 39.7188 52.2812C39.2396 51.8021 39 51.2083 39 50.5C39 49.7917 39.2396 49.1979 39.7188 48.7188C40.1979 48.2396 40.7917 48 41.5 48C42.2083 48 42.8021 48.2396 43.2812 48.7188C43.7604 49.1979 44 49.7917 44 50.5C44 51.2083 43.7604 51.8021 43.2812 52.2812C42.8021 52.7604 42.2083 53 41.5 53ZM56.5 53C55.7917 53 55.1979 52.7604 54.7188 52.2812C54.2396 51.8021 54 51.2083 54 50.5C54 49.7917 54.2396 49.1979 54.7188 48.7188C55.1979 48.2396 55.7917 48 56.5 48C57.2083 48 57.8021 48.2396 58.2812 48.7188C58.7604 49.1979 59 49.7917 59 50.5C59 51.2083 58.7604 51.8021 58.2812 52.2812C57.8021 52.7604 57.2083 53 56.5 53ZM34.0625 49.125C33.7708 44.7083 35.1042 40.9167 38.0625 37.75C41.0208 34.5833 44.7083 33 49.125 33C52.8333 33 56.0938 34.1771 58.9062 36.5312C61.7188 38.8854 63.4167 41.8958 64 45.5625C60.2083 45.5208 56.7188 44.5 53.5312 42.5C50.3438 40.5 47.8958 37.7917 46.1875 34.375C45.5208 37.7083 44.1146 40.6771 41.9688 43.2812C39.8229 45.8854 37.1875 47.8333 34.0625 49.125Z" fill="#1E3A8A"/>
</svg>
