<svg width="97" height="97" viewBox="0 0 97 97" fill="none" xmlns="http://www.w3.org/2000/svg">
<rect x="0.695862" y="0.462646" width="96.15" height="96.15" rx="26.7083" fill="#F9F9FF"/>
<path d="M29.5416 53.9166C28.7743 53.9166 28.1311 53.657 27.612 53.1379C27.0929 52.6188 26.8333 51.9756 26.8333 51.2083C26.8333 50.4409 27.0929 49.7977 27.612 49.2786C28.1311 48.7595 28.7743 48.4999 29.5416 48.4999H43.0833C43.8507 48.4999 44.4939 48.7595 45.013 49.2786C45.5321 49.7977 45.7916 50.4409 45.7916 51.2083C45.7916 51.9756 45.5321 52.6188 45.013 53.1379C44.4939 53.657 43.8507 53.9166 43.0833 53.9166H29.5416ZM29.5416 43.0833C28.7743 43.0833 28.1311 42.8237 27.612 42.3046C27.0929 41.7855 26.8333 41.1423 26.8333 40.3749C26.8333 39.6076 27.0929 38.9643 27.612 38.4452C28.1311 37.9261 28.7743 37.6666 29.5416 37.6666H53.9166C54.684 37.6666 55.3272 37.9261 55.8463 38.4452C56.3654 38.9643 56.625 39.6076 56.625 40.3749C56.625 41.1423 56.3654 41.7855 55.8463 42.3046C55.3272 42.8237 54.684 43.0833 53.9166 43.0833H29.5416ZM29.5416 32.2499C28.7743 32.2499 28.1311 31.9904 27.612 31.4713C27.0929 30.9522 26.8333 30.3089 26.8333 29.5416C26.8333 28.7742 27.0929 28.131 27.612 27.6119C28.1311 27.0928 28.7743 26.8333 29.5416 26.8333H53.9166C54.684 26.8333 55.3272 27.0928 55.8463 27.6119C56.3654 28.131 56.625 28.7742 56.625 29.5416C56.625 30.3089 56.3654 30.9522 55.8463 31.4713C55.3272 31.9904 54.684 32.2499 53.9166 32.2499H29.5416ZM51.2083 67.4582V62.9895C51.2083 62.6284 51.276 62.2786 51.4114 61.94C51.5469 61.6015 51.75 61.2968 52.0208 61.026L66.1719 46.9426C66.5781 46.5364 67.0295 46.243 67.526 46.0624C68.0226 45.8819 68.5191 45.7916 69.0156 45.7916C69.5573 45.7916 70.0764 45.8931 70.5729 46.0963C71.0694 46.2994 71.5208 46.6041 71.9271 47.0103L74.4323 49.5155C74.7934 49.9218 75.0755 50.3732 75.2786 50.8697C75.4818 51.3662 75.5833 51.8628 75.5833 52.3593C75.5833 52.8558 75.493 53.3636 75.3125 53.8827C75.1319 54.4018 74.8385 54.8645 74.4323 55.2707L60.3489 69.3541C60.0781 69.6249 59.7734 69.828 59.4349 69.9635C59.0963 70.0989 58.7465 70.1666 58.3854 70.1666H53.9166C53.1493 70.1666 52.5061 69.907 51.987 69.3879C51.4679 68.8688 51.2083 68.2256 51.2083 67.4582ZM55.2708 66.1041H57.8437L66.0364 57.8437L64.8177 56.5572L63.5312 55.3385L55.2708 63.5312V66.1041ZM64.8177 56.5572L63.5312 55.3385L66.0364 57.8437L64.8177 56.5572Z" fill="#1E3A8A"/>
</svg>
