<svg width="97" height="97" viewBox="0 0 97 97" fill="none" xmlns="http://www.w3.org/2000/svg">
<rect x="0.733398" y="0.462646" width="96.15" height="96.15" rx="26.7083" fill="#F9F9FF"/>
<path d="M78.5 41.5001C78.5 44.3751 77.9896 47.1147 76.9688 49.7189C75.9479 52.323 74.5625 54.6876 72.8125 56.8126C72.3125 57.3959 71.6875 57.7084 70.9375 57.7501C70.1875 57.7918 69.5208 57.5209 68.9375 56.9376C68.3958 56.3959 68.1458 55.7501 68.1875 55.0001C68.2292 54.2501 68.4792 53.5626 68.9375 52.9376C70.1875 51.3543 71.1562 49.5834 71.8438 47.6251C72.5312 45.6668 72.875 43.6251 72.875 41.5001C72.875 39.3751 72.5312 37.3543 71.8438 35.4376C71.1562 33.5209 70.1875 31.7709 68.9375 30.1876C68.4375 29.5626 68.1771 28.8751 68.1562 28.1251C68.1354 27.3751 68.3958 26.7084 68.9375 26.1251C69.4792 25.5418 70.1354 25.2605 70.9062 25.2814C71.6771 25.3022 72.3125 25.6043 72.8125 26.1876C74.5625 28.3126 75.9479 30.6772 76.9688 33.2814C77.9896 35.8855 78.5 38.6251 78.5 41.5001ZM67.125 41.5001C67.125 42.8334 66.9167 44.1147 66.5 45.3439C66.0833 46.573 65.5 47.7084 64.75 48.7501C64.2917 49.3751 63.6771 49.698 62.9062 49.7189C62.1354 49.7397 61.4583 49.4584 60.875 48.8751C60.3333 48.3334 60.0521 47.6772 60.0312 46.9064C60.0104 46.1355 60.1875 45.3959 60.5625 44.6876C60.8125 44.2293 61.0104 43.7293 61.1562 43.1876C61.3021 42.6459 61.375 42.0834 61.375 41.5001C61.375 40.9168 61.3021 40.3543 61.1562 39.8126C61.0104 39.2709 60.8125 38.7501 60.5625 38.2501C60.1875 37.5418 60.0104 36.8126 60.0312 36.0626C60.0521 35.3126 60.3333 34.6668 60.875 34.1251C61.4583 33.5418 62.1354 33.2605 62.9062 33.2814C63.6771 33.3022 64.2917 33.6251 64.75 34.2501C65.5 35.2918 66.0833 36.4272 66.5 37.6564C66.9167 38.8855 67.125 40.1668 67.125 41.5001ZM43.5 51.5001C40.75 51.5001 38.3958 50.5209 36.4375 48.5626C34.4792 46.6043 33.5 44.2501 33.5 41.5001C33.5 38.7501 34.4792 36.3959 36.4375 34.4376C38.3958 32.4793 40.75 31.5001 43.5 31.5001C46.25 31.5001 48.6042 32.4793 50.5625 34.4376C52.5208 36.3959 53.5 38.7501 53.5 41.5001C53.5 44.2501 52.5208 46.6043 50.5625 48.5626C48.6042 50.5209 46.25 51.5001 43.5 51.5001ZM23.5 66.5001V64.5001C23.5 63.1251 23.8542 61.8334 24.5625 60.6251C25.2708 59.4168 26.25 58.5001 27.5 57.8751C29.625 56.7918 32.0208 55.8751 34.6875 55.1251C37.3542 54.3751 40.2917 54.0001 43.5 54.0001C46.7083 54.0001 49.6458 54.3751 52.3125 55.1251C54.9792 55.8751 57.375 56.7918 59.5 57.8751C60.75 58.5001 61.7292 59.4168 62.4375 60.6251C63.1458 61.8334 63.5 63.1251 63.5 64.5001V66.5001C63.5 67.8751 63.0104 69.0522 62.0312 70.0313C61.0521 71.0105 59.875 71.5001 58.5 71.5001H28.5C27.125 71.5001 25.9479 71.0105 24.9688 70.0313C23.9896 69.0522 23.5 67.8751 23.5 66.5001ZM28.5 66.5001H58.5V64.5001C58.5 64.0418 58.3854 63.6251 58.1562 63.2501C57.9271 62.8751 57.625 62.5834 57.25 62.3751C55.75 61.6251 53.8229 60.8751 51.4688 60.1251C49.1146 59.3751 46.4583 59.0001 43.5 59.0001C40.5417 59.0001 37.8854 59.3751 35.5312 60.1251C33.1771 60.8751 31.25 61.6251 29.75 62.3751C29.375 62.5834 29.0729 62.8751 28.8438 63.2501C28.6146 63.6251 28.5 64.0418 28.5 64.5001V66.5001ZM43.5 46.5001C44.875 46.5001 46.0521 46.0105 47.0312 45.0314C48.0104 44.0522 48.5 42.8751 48.5 41.5001C48.5 40.1251 48.0104 38.948 47.0312 37.9689C46.0521 36.9897 44.875 36.5001 43.5 36.5001C42.125 36.5001 40.9479 36.9897 39.9688 37.9689C38.9896 38.948 38.5 40.1251 38.5 41.5001C38.5 42.8751 38.9896 44.0522 39.9688 45.0314C40.9479 46.0105 42.125 46.5001 43.5 46.5001Z" fill="#1E3A8A"/>
</svg>
